<?xml version="1.0" encoding="UTF-8"?><svg id="Layer_2" xmlns="http://www.w3.org/2000/svg" viewBox="0 0 1767.52 1456.32"><defs><style>.cls-1{fill:#ededed;stroke-width:0px;}</style></defs><g id="Layer_1-2"><path class="cls-1" d="M1767.52,734.02c-2.56,40.72-.69,82.31-8.5,122-26.14,132.79-151.26,219-284.79,199.02-13.14-1.97-20.05,1.87-27.47,12.49-106.79,152.92-252.05,247.67-434.69,284.81-12.56,2.55-19,7.36-24.34,18.87-29.77,64.11-100.61,97.61-168.67,80.81-67.27-16.6-115.22-79.4-112.91-147.88,2.4-71,54.36-130.4,124.33-142.13,59.63-9.99,120.57,18.14,151.05,71.63,7.12,12.49,13.93,14.14,26.66,11.26,238.86-54.18,415.03-246.3,447.47-488.52,40.44-301.98-169.55-589.63-468.57-641.84-310.57-54.23-600.99,139.78-667.95,448.41-29.33,135.21-9.74,265.16,54.38,388.02,24.52,46.99,12.38,77.42-38.16,94.35C176.24,1098.65,8.19,983.79,1.77,815.42c-2.41-63.26-3.16-127.2,3.1-190.05,11.36-113.93,114.06-208.33,228.44-214.88,18.06-1.03,25.83-7.75,33.94-23.31C402.11,128.63,615.96-8.52,907.47.41c273.28,8.38,471.11,148.02,594.56,391.79,6.25,12.33,12.66,16.98,26.35,17.79,131.96,7.79,235.59,116.89,237.4,249.18.34,24.9.05,49.81.05,74.72.57.04,1.13.09,1.7.13Z"/><path class="cls-1" d="M877.17,233.53c237.56.24,432.71,179.02,451.78,408.05,20.47,245.84-154.72,458.36-399.3,484.93-49.51,5.38-98.1,1.37-146.71-8.26-8.76-1.74-20.1-.13-27.85,4.21-55.32,30.94-109.82,63.34-164.97,94.58-36.49,20.67-77.22,1.96-82.35-37.79-1.24-9.58,1.14-20.04,3.65-29.62,13.03-49.82,26.46-99.54,40.19-149.18,2.78-10.06,1.05-17.11-5.83-25.48-111.15-135.14-142.43-287.29-80.42-450.86,63.01-166.2,188.98-260.6,364.95-287.21,17.53-2.65,35.46-2.6,46.86-3.38ZM883.12,734.53c29.55-.11,53.25-23.31,53.55-52.42.31-29.6-24.64-54.54-54.04-54.05-28.89.49-52.73,24.82-52.62,53.71.11,29.27,23.87,52.87,53.11,52.76ZM705.38,734.5c29.46.04,53.06-23.17,53.35-52.47.29-28.67-23.7-53.42-52.35-54.01-29.27-.61-54.47,24.41-54.26,53.87.21,29.28,23.78,52.57,53.26,52.61ZM1060.58,734.5c29.53.32,53.36-22.52,54.04-51.81.69-29.35-24.22-54.81-53.48-54.66-28.82.14-52.98,24.34-53.12,53.2-.15,29.32,23.17,52.95,52.56,53.27Z"/></g></svg>